
<svg xmlns="http://www.w3.org/2000/svg" viewBox="0 0 500 500"><g id="freepik--Floor--inject-68"><path d="M409,255.09c-88.41-51-231.28-51-319.12,0S2.55,388.9,91,439.94s231.28,51.05,319.12,0S497.45,306.14,409,255.09Z" style="fill:#fafafa"></path></g><g id="freepik--Shadows--inject-68"><path d="M439.8,392.15c2.84,1.64,2.85,4.3,0,5.94l-11.6,6.69a11.27,11.27,0,0,1-10.24,0L290.81,331.35c-2.84-1.63-2.86-4.29,0-5.93l11.59-6.69a11.29,11.29,0,0,1,10.25,0Z" style="fill:#f0f0f0"></path><path d="M404.12,402.69c2.85,1.65,2.86,4.3,0,5.94l-11.6,6.69a11.29,11.29,0,0,1-10.25,0l-108.6-62.73c-2.84-1.64-2.86-4.3,0-5.94l11.6-6.69a11.29,11.29,0,0,1,10.25,0Z" style="fill:#f0f0f0"></path><path d="M90.22,397.76c-7.79-4.5-20.39-4.5-28.14,0s-7.7,11.8.09,16.3,20.4,4.5,28.14,0S98,402.26,90.22,397.76Z" style="fill:#f0f0f0"></path><path d="M129.29,387.2c24.07-13.9,63-13.9,86.9,0s23.79,36.44-.29,50.34-63,13.9-86.9,0S105.21,401.1,129.29,387.2Z" style="fill:#f0f0f0"></path><path d="M100.66,342.6l51.72-29.86a2.29,2.29,0,0,0,0-4L106.8,282.29a2.29,2.29,0,0,0-2.29,0L51.65,312.81a2.29,2.29,0,0,0,0,4l44.43,25.82A4.59,4.59,0,0,0,100.66,342.6Z" style="fill:#f0f0f0"></path><path d="M261.65,242.94c-12.2-7-31.92-7-44,0s-12.06,18.47.14,25.51,31.92,7.05,44,0S273.85,250,261.65,242.94Z" style="fill:#f0f0f0"></path></g><g id="freepik--Window--inject-68"><polygon points="160.13 86.89 156.21 84.61 114.8 108.43 114.8 112.96 160.13 86.89" style="fill:#f5f5f5"></polygon><polygon points="160.13 86.89 160.13 86.89 160.13 86.89 114.8 112.96 114.8 118.14 160.14 92.09 160.13 86.89" style="fill:#e0e0e0"></polygon><rect x="111.31" y="99.93" width="52.3" transform="translate(-31.52 81.84) rotate(-29.91)" style="fill:#e0e0e0"></rect><polygon points="91.12 126.59 87.2 124.31 45.78 148.13 45.78 152.67 91.12 126.59" style="fill:#f5f5f5"></polygon><polygon points="91.12 126.59 91.12 126.59 91.12 126.59 45.78 152.67 45.78 157.84 91.13 131.79 91.12 126.59" style="fill:#e0e0e0"></polygon><rect x="42.3" y="139.63" width="52.3" transform="translate(-60.5 52.72) rotate(-29.91)" style="fill:#e0e0e0"></rect><polygon points="159.91 43.36 155.99 41.08 156.22 158.35 160.14 160.63 159.91 43.36" style="fill:#f0f0f0"></polygon><polygon points="160.14 160.63 156.22 158.35 111.11 184.25 115.03 186.53 160.14 160.63" style="fill:#f5f5f5"></polygon><path d="M164.66,163.21l-54.13,31.1-.26-127.63L164.4,35.57ZM115,186.53l45.11-25.9-.23-117.27L114.8,69.25,115,186.53" style="fill:#e0e0e0"></path><polygon points="164.4 35.57 160.49 33.3 106.35 64.4 110.27 66.68 164.4 35.57" style="fill:#f5f5f5"></polygon><polygon points="110.27 66.68 106.35 64.4 106.61 192.03 110.53 194.31 110.27 66.68" style="fill:#f0f0f0"></polygon><polygon points="90.9 83.06 86.98 80.78 87.21 198.06 91.13 200.34 90.9 83.06" style="fill:#f0f0f0"></polygon><polygon points="91.13 200.34 87.21 198.06 42.1 223.95 46.01 226.23 91.13 200.34" style="fill:#f5f5f5"></polygon><path d="M95.65,202.91,41.52,234l-.26-127.63,54.13-31.1ZM46,226.23l45.12-25.89L90.9,83.06,45.78,109,46,226.23" style="fill:#e0e0e0"></path><polygon points="95.39 75.28 91.47 73 37.34 104.1 41.26 106.38 95.39 75.28" style="fill:#f5f5f5"></polygon><polygon points="41.26 106.38 37.34 104.1 37.6 231.74 41.52 234.01 41.26 106.38" style="fill:#f0f0f0"></polygon></g><g id="freepik--Furniture--inject-68"><polygon points="140.87 308.97 145.28 311.54 145.27 306.43 140.87 308.97" style="fill:#e6e6e6"></polygon><polygon points="145.16 281.7 145.16 281.65 145.16 281.65 145.16 281.65 145.16 281.7" style="fill:#787878"></polygon><rect x="123.67" y="269.24" height="49.63" style="fill:#cfcfcf"></rect><polygon points="145.09 256.84 102.11 281.66 102.11 281.66 145.09 256.84" style="fill:#cfcfcf"></polygon><path d="M145.27,306.43v5.11l4.6-2.66-.17-60L97.45,279l.17,60.05,4.6-2.66v-5.11L140.87,309Zm-43.16-24.77h0l43-24.82.06,19.48-43,24.82Zm.07,24.81h0l43-24.82h0v.06l.06,19.41-43,24.82Z" style="fill:#e6e6e6"></path><polygon points="145.22 301.12 145.16 281.7 145.16 281.65 102.18 306.47 102.18 306.47 102.23 325.94 145.22 301.12" style="fill:#e0e0e0"></polygon><polygon points="145.15 276.32 145.09 256.84 102.11 281.66 102.11 281.66 102.16 301.14 145.15 276.32" style="fill:#e0e0e0"></polygon><polygon points="97.45 279.01 51.82 252.49 51.99 312.54 97.62 339.06 97.45 279.01" style="fill:#e0e0e0"></polygon><polygon points="97.45 279.01 149.71 248.83 104.09 222.32 51.82 252.49 97.45 279.01" style="fill:#e0e0e0"></polygon><polygon points="140.87 308.97 145.28 311.54 145.27 306.43 140.87 308.97" style="fill:#e6e6e6"></polygon><polygon points="145.16 281.7 145.16 281.65 145.16 281.65 145.16 281.65 145.16 281.7" style="fill:#787878"></polygon><rect x="123.67" y="269.24" height="49.63" style="fill:#cfcfcf"></rect><polygon points="145.09 256.84 102.11 281.66 102.11 281.66 145.09 256.84" style="fill:#cfcfcf"></polygon><polygon points="145.22 301.12 145.16 281.7 145.16 281.65 102.18 306.47 102.18 306.47 102.23 325.94 145.22 301.12" style="fill:#fff;opacity:0.8"></polygon><polygon points="145.15 276.32 145.09 256.84 102.11 281.66 102.11 281.66 102.16 301.14 145.15 276.32" style="fill:#fff;opacity:0.8"></polygon><polygon points="131.08 272.18 131.06 269.49 116.17 278.08 116.17 278.08 116.19 280.77 131.08 272.18" style="fill:#e0e0e0"></polygon><polygon points="131.08 296.64 131.06 293.95 116.17 302.54 116.17 302.54 116.19 305.23 131.08 296.64" style="fill:#e0e0e0"></polygon><polygon points="97.45 279.01 51.82 252.49 51.99 312.54 97.62 339.06 97.45 279.01" style="fill:#ebebeb"></polygon><polygon points="97.45 279.01 149.71 248.83 104.09 222.32 51.82 252.49 97.45 279.01" style="fill:#f0f0f0"></polygon></g><g id="freepik--Lamp--inject-68"><path d="M251.65,88.24a7.89,7.89,0,0,0-3.17-3.07c-4.88-2.81-12.77-2.81-17.62,0a7.76,7.76,0,0,0-3.13,3.07c-1.22,2.45-.16,5.21,3.19,7.14,4.88,2.82,12.77,2.82,17.62,0C251.87,93.45,252.9,90.69,251.65,88.24Z" style="opacity:0.1"></path><path d="M252.15,254.48c-.08,1.77-1.28,3.53-3.61,4.88-4.85,2.82-12.74,2.82-17.62,0-2.35-1.35-3.56-3.11-3.67-4.88h0v3.93h0c0,1.85,1.23,3.7,3.67,5.11,4.88,2.81,12.77,2.81,17.62,0,2.43-1.41,3.63-3.26,3.61-5.11h0v-3.93Z" style="fill:#e0e0e0"></path><path d="M230.92,259.36c4.88,2.82,12.77,2.82,17.62,0,2.33-1.35,3.53-3.11,3.61-4.88a4.49,4.49,0,0,0-.5-2.26,7.89,7.89,0,0,0-3.17-3.07c-4.88-2.81-12.77-2.81-17.62,0a7.68,7.68,0,0,0-3.13,3.06,4.57,4.57,0,0,0-.48,2.26C227.36,256.25,228.57,258,230.92,259.36Z" style="fill:#f0f0f0"></path><rect x="229.93" y="124.55" width="0.37" height="32.85" style="fill:#e0e0e0"></rect><path d="M231,157.76a.91.91,0,1,1-.91-.91A.91.91,0,0,1,231,157.76Z" style="fill:#f0f0f0"></path><path d="M241.94,112.71h-4.48V253.18h0a1.11,1.11,0,0,0,.65.92,3.48,3.48,0,0,0,3.17,0,1.08,1.08,0,0,0,.64-.92h0Z" style="fill:#e0e0e0"></path><path d="M265.43,118.76h0c-2.87-10-13.8-30.51-13.8-30.51h0c1.25,2.45.22,5.21-3.11,7.14-4.85,2.82-12.74,2.82-17.62,0-3.35-1.93-4.41-4.69-3.19-7.14h0s-10.93,20.56-13.79,30.51h0c-1.94,5,.44,10.4,7.14,14.27,10.35,6,27.08,6,37.37,0C265.1,129.15,267.42,123.72,265.43,118.76Z" style="fill:#f0f0f0"></path><path d="M251.65,88.24a7.89,7.89,0,0,0-3.17-3.07c-4.88-2.81-12.77-2.81-17.62,0a7.76,7.76,0,0,0-3.13,3.07c-1.22,2.45-.16,5.21,3.19,7.14,4.88,2.82,12.77,2.82,17.62,0C251.87,93.45,252.9,90.69,251.65,88.24Z" style="fill:#e0e0e0"></path></g><g id="freepik--plant-2--inject-68"><path d="M91.38,241.22c5.81-3.35,15.18-3.35,21,0s5.73,8.78-.07,12.13-15.18,3.35-21,0S85.58,244.57,91.38,241.22Z" style="opacity:0.05"></path><path d="M86.35,220.13l15.92.47,15.92-.47c.69,10.76-1.41,21.71-4.31,27.06h0a7.25,7.25,0,0,1-3.15,3.21c-4.7,2.71-12.29,2.71-17,0a7.09,7.09,0,0,1-3.14-3.29C87.74,241.73,85.67,230.83,86.35,220.13Z" style="fill:#fff"></path><path d="M91.05,213.61c-6.24,3.61-6.27,9.44-.07,13s16.27,3.61,22.51,0,6.27-9.44.07-13S97.29,210,91.05,213.61Z" style="fill:#ebebeb"></path><path d="M93.52,215.05c-4.87,2.81-4.9,7.36-.06,10.17s12.7,2.81,17.56,0,4.9-7.36.06-10.17S98.38,212.24,93.52,215.05Z" style="fill:#e0e0e0"></path><g style="opacity:0.15"><path d="M93.52,215.05c-4.87,2.81-4.9,7.36-.06,10.17s12.7,2.81,17.56,0,4.9-7.36.06-10.17S98.38,212.24,93.52,215.05Z"></path></g><path d="M103.6,220.58a10.49,10.49,0,0,1-9.34,2.13,9.78,9.78,0,0,1-6.54-6.62,19.16,19.16,0,0,0,5.11-3.55,13.14,13.14,0,0,0-7.24.26,7.38,7.38,0,0,1-.54-6.9,12.64,12.64,0,0,1,8.63-.6A11.46,11.46,0,0,0,85,202.55a33.34,33.34,0,0,1,2.1-13.4c5.93.3,11.69,2.86,13.63,4.7a21.66,21.66,0,0,1-.66,6.31,5.12,5.12,0,0,0,2.76-4.08c3.71.93,5.3,2.78,5.88,4.2a15.51,15.51,0,0,1-3.52,7.12c3.49-1.05,4.91-4.94,4.91-4.94C113.48,210.59,112.82,219.79,103.6,220.58Z" style="fill:#EB8D8D"></path><path d="M103.6,220.58a10.49,10.49,0,0,1-9.34,2.13,9.78,9.78,0,0,1-6.54-6.62,19.16,19.16,0,0,0,5.11-3.55,13.14,13.14,0,0,0-7.24.26,7.38,7.38,0,0,1-.54-6.9,12.64,12.64,0,0,1,8.63-.6A11.46,11.46,0,0,0,85,202.55a33.34,33.34,0,0,1,2.1-13.4c5.93.3,11.69,2.86,13.63,4.7a21.66,21.66,0,0,1-.66,6.31,5.12,5.12,0,0,0,2.76-4.08c3.71.93,5.3,2.78,5.88,4.2a15.51,15.51,0,0,1-3.52,7.12c3.49-1.05,4.91-4.94,4.91-4.94C113.48,210.59,112.82,219.79,103.6,220.58Z" style="opacity:0.2"></path><path d="M103.6,220.58a10.49,10.49,0,0,1-9.34,2.13,9.78,9.78,0,0,1-6.54-6.62,19.16,19.16,0,0,0,5.11-3.55,13.14,13.14,0,0,0-7.24.26,7.38,7.38,0,0,1-.54-6.9,12.64,12.64,0,0,1,8.63-.6A11.46,11.46,0,0,0,85,202.55a33.34,33.34,0,0,1,2.1-13.4c5.93.3,11.69,2.86,13.63,4.7a21.66,21.66,0,0,1-.66,6.31,5.12,5.12,0,0,0,2.76-4.08c3.71.93,5.3,2.78,5.88,4.2a15.51,15.51,0,0,1-3.52,7.12c3.49-1.05,4.91-4.94,4.91-4.94C113.48,210.59,112.82,219.79,103.6,220.58Z" style="fill:#fff;opacity:0.30000000000000004"></path><path d="M103.81,221.46h0a.34.34,0,0,0,.32-.36c-.57-7.5-4.86-19.87-15.08-30.08a.35.35,0,1,0-.49.49c10.1,10.07,14.33,22.26,14.88,29.64A.35.35,0,0,0,103.81,221.46Z" style="fill:#f5f5f5"></path><path d="M101,224.6a9.75,9.75,0,0,0,15.24-4,16.38,16.38,0,0,1-4.61-3.14,13.12,13.12,0,0,1,6.84.2,6.39,6.39,0,0,0,1-6.15,12.6,12.6,0,0,0-8.15-.49,12,12,0,0,1,8.45-2.5,27.3,27.3,0,0,0-1.14-12c-5.66.34-11.26,2.68-13.2,4.34a17.76,17.76,0,0,0,.23,5.6,4.11,4.11,0,0,1-2.35-3.6c-3.54.86-5.14,2.52-5.77,3.77a12.44,12.44,0,0,0,2.86,6.29c-3.2-.91-4.29-4.34-4.29-4.34C92.39,215.8,92.44,223.91,101,224.6Z" style="fill:#EB8D8D"></path><path d="M101,224.6a9.75,9.75,0,0,0,15.24-4,16.38,16.38,0,0,1-4.61-3.14,13.12,13.12,0,0,1,6.84.2,6.39,6.39,0,0,0,1-6.15,12.6,12.6,0,0,0-8.15-.49,12,12,0,0,1,8.45-2.5,27.3,27.3,0,0,0-1.14-12c-5.66.34-11.26,2.68-13.2,4.34a17.76,17.76,0,0,0,.23,5.6,4.11,4.11,0,0,1-2.35-3.6c-3.54.86-5.14,2.52-5.77,3.77a12.44,12.44,0,0,0,2.86,6.29c-3.2-.91-4.29-4.34-4.29-4.34C92.39,215.8,92.44,223.91,101,224.6Z" style="fill:#fff;opacity:0.30000000000000004"></path><path d="M100.77,225.41a.34.34,0,0,0,.34-.29c1-6.53,5.72-17.36,15.88-26.41a.36.36,0,0,0,0-.49.35.35,0,0,0-.49,0c-10.29,9.17-15.1,20.18-16.09,26.82a.34.34,0,0,0,.28.39Z" style="fill:#fff"></path></g><g id="freepik--plant-1--inject-68"><path d="M95.07,371.86l-18.87.55-18.88-.55c-.81,12.75,1.68,25.73,5.11,32.08h0a8.63,8.63,0,0,0,3.74,3.8c5.57,3.22,14.57,3.22,20.1,0a8.43,8.43,0,0,0,3.74-3.9C93.42,397.46,95.88,384.54,95.07,371.86Z" style="fill:#fff"></path><path d="M89.5,364.13c7.39,4.27,7.43,11.19.09,15.46s-19.3,4.27-26.7,0-7.43-11.19-.08-15.46S82.11,359.86,89.5,364.13Z" style="fill:#ebebeb"></path><path d="M86.58,365.83c5.77,3.33,5.8,8.73.06,12.06s-15,3.33-20.82,0-5.8-8.73-.07-12.06S80.81,362.5,86.58,365.83Z" style="fill:#e0e0e0"></path><g style="opacity:0.15"><path d="M86.58,365.83c5.77,3.33,5.8,8.73.06,12.06s-15,3.33-20.82,0-5.8-8.73-.07-12.06S80.81,362.5,86.58,365.83Z"></path></g><path d="M107.23,291.32C64.7,305.25,64.31,333.7,73.9,354c2.42,4.11,9.74,6.31,16.11-18.89L78.83,336.5l13-6.6,3.39-10.11-10.86.81,13.78-5.8A205,205,0,0,1,107.23,291.32Z" style="fill:#EB8D8D"></path><path d="M107.23,291.32C64.7,305.25,64.31,333.7,73.9,354c2.42,4.11,9.74,6.31,16.11-18.89L78.83,336.5l13-6.6,3.39-10.11-10.86.81,13.78-5.8A205,205,0,0,1,107.23,291.32Z" style="opacity:0.2"></path><path d="M107.23,291.32C64.7,305.25,64.31,333.7,73.9,354c2.42,4.11,9.74,6.31,16.11-18.89L78.83,336.5l13-6.6,3.39-10.11-10.86.81,13.78-5.8A205,205,0,0,1,107.23,291.32Z" style="fill:#fff;opacity:0.2"></path><path d="M95.2,298.44c-22.43,17-24.46,36.54-18.12,56.91C74.84,337.41,72.42,319.27,95.2,298.44Z" style="fill:#fff"></path><path d="M35.19,320.22c41.92,5.91,47,32.34,41.45,52.81-1.57,4.22-8,7.49-18.14-14.92l10.64-.53-13.22-4-4.83-8.85,10.24-1.05-13.79-3.11A193.26,193.26,0,0,0,35.19,320.22Z" style="fill:#EB8D8D"></path><path d="M35.19,320.22c41.92,5.91,47,32.34,41.45,52.81-1.57,4.22-8,7.49-18.14-14.92l10.64-.53-13.22-4-4.83-8.85,10.24-1.05-13.79-3.11A193.26,193.26,0,0,0,35.19,320.22Z" style="fill:#fff;opacity:0.2"></path><path d="M47.57,324.85c23.72,12.13,28.85,30,26.33,50C73,357.77,72.25,340.47,47.57,324.85Z" style="fill:#fff"></path><path d="M35.19,320.22c41.92,5.91,47,32.34,41.45,52.81-1.57,4.22-8,7.49-18.14-14.92l10.64-.53-13.22-4-4.83-8.85,10.24-1.05-13.79-3.11A193.26,193.26,0,0,0,35.19,320.22Z" style="opacity:0.1"></path><path d="M119.5,330.13c-38.45.63-46,23.89-43.27,43,.94,4,6.39,7.64,18-11.42L84.72,360l12.36-2.11,5.34-7.43-9.11-2.1,12.78-1.26A176.28,176.28,0,0,1,119.5,330.13Z" style="fill:#EB8D8D"></path><path d="M107.82,332.92C85.08,341.19,78.47,356.7,78.49,375,81.21,359.74,83.83,344.23,107.82,332.92Z" style="fill:#fff"></path><path d="M119.5,330.13c-38.45.63-46,23.89-43.27,43,.94,4,6.39,7.64,18-11.42L84.72,360l12.36-2.11,5.34-7.43-9.11-2.1,12.78-1.26A176.28,176.28,0,0,1,119.5,330.13Z" style="fill:#fff;opacity:0.2"></path></g><g id="freepik--Device--inject-68"><path d="M441.74,105a11.63,11.63,0,0,0-4.7-5L314.79,30.45A5.35,5.35,0,0,0,313,30.1c-6.3-.13-12.62,5.8-13.51,8.91h0a2.8,2.8,0,0,0-.31,1.27V304.62a11.69,11.69,0,0,0,5.9,10.16l122.26,69.67a3.85,3.85,0,0,0,.47.19l0,0c7.29,3.09,15.06-3.34,15.06-10.07V110.16A11.7,11.7,0,0,0,441.74,105Z" style="fill:#37474f"></path><path d="M299.53,39h0c.89-3.11,7.21-9,13.51-8.91a5.35,5.35,0,0,1,1.76.35L437,100A11.87,11.87,0,0,1,443,110.16V374.6c0,6.73-7.77,13.16-15.06,10.07l0,0a3.85,3.85,0,0,1-.47-.19L305.12,314.78a11.69,11.69,0,0,1-5.9-10.16V40.29A2.8,2.8,0,0,1,299.53,39Z" style="fill:#455a64"></path><path d="M425.9,138.11A5.86,5.86,0,0,0,423,133L309.44,68.45A2.92,2.92,0,0,0,305.07,71V284.22A5.84,5.84,0,0,0,308,289.3L421.53,354a2.92,2.92,0,0,0,4.37-2.54Z" style="fill:#EB8D8D"></path><path d="M425.9,138.11A5.86,5.86,0,0,0,423,133L309.44,68.45A2.92,2.92,0,0,0,305.07,71V284.22A5.84,5.84,0,0,0,308,289.3L421.53,354a2.92,2.92,0,0,0,4.37-2.54Z" style="opacity:0.2"></path><path d="M443,110.16V374.6c0,6.73-7.77,13.16-15.06,10.07l0,0a2.91,2.91,0,0,0,3.9-2.73V117.47a11.64,11.64,0,0,0-2-6.46l12-6A11.7,11.7,0,0,1,443,110.16Z" style="opacity:0.30000000000000004"></path><path d="M313,30.1a5.35,5.35,0,0,1,1.76.35L437,100a11.63,11.63,0,0,1,4.7,5l-12,6a11.53,11.53,0,0,0-3.93-3.7L303.59,37.75A2.92,2.92,0,0,0,299.53,39h0C300.41,35.9,306.73,30,313,30.1Z" style="fill:#fff;opacity:0.1"></path><path d="M350.42,81.42c-.86-.5-1.57-.11-1.58.88a3.47,3.47,0,0,0,1.57,2.7l24,13.85c.86.5,1.55.08,1.56-.91a3.4,3.4,0,0,0-1.55-2.67Z" style="fill:#263238"></path><path d="M380.56,98.82c-.86-.49-1.55-.1-1.55.89a3.41,3.41,0,0,0,1.54,2.7c.86.49,1.57.09,1.57-.9A3.42,3.42,0,0,0,380.56,98.82Z" style="fill:#263238"></path><path d="M365.21,79.41c-1.72-1-3.1-.21-3.11,1.77a6.85,6.85,0,0,0,3.09,5.38c1.71,1,3.14.18,3.14-1.79A6.85,6.85,0,0,0,365.21,79.41Z" style="fill:#263238"></path><path d="M365.2,328.35c-3.49-2-6.31-.41-6.32,3.6a13.93,13.93,0,0,0,6.28,11c3.49,2,6.39.36,6.4-3.65A14,14,0,0,0,365.2,328.35Z" style="fill:#263238"></path></g><g id="freepik--Screen--inject-68"><path d="M406.71,145.4c-.14-.37-.3-.74-.47-1.1a10.85,10.85,0,0,0-2.93-3.67,11.19,11.19,0,0,0-1.34-.9L291,76.6a2.56,2.56,0,0,0-.57-.18,6.56,6.56,0,0,0-1-.13c-3.57-.07-7.15,2-9.53,4.25a10,10,0,0,0-2.73,3.84h0a3.62,3.62,0,0,0-.2.55,2.43,2.43,0,0,0-.08.61V325.47h0a10.57,10.57,0,0,0,1.44,5.33,11,11,0,0,0,.77,1.15,10.68,10.68,0,0,0,3.15,2.74l111,63.23a3.79,3.79,0,0,0,.42.18s0,0,.05,0c6.62,2.8,13.67-3,13.67-9.15V149h0A10.62,10.62,0,0,0,406.71,145.4Z" style="fill:#EB8D8D"></path><path d="M277.15,84.38h0c.81-2.83,6.55-8.21,12.26-8.09a4.82,4.82,0,0,1,1.61.31l111,63.13a10.75,10.75,0,0,1,5.37,9.23V389c0,6.12-7,11.95-13.67,9.15,0,0,0,0-.05,0a3.79,3.79,0,0,1-.42-.18l-111-63.23a10.63,10.63,0,0,1-5.36-9.22V85.54A2.61,2.61,0,0,1,277.15,84.38Z" style="fill:#EB8D8D"></path><path d="M407.34,149V389c0,6.12-7,11.95-13.67,9.15,0,0,0,0-.05,0a2.65,2.65,0,0,0,3.55-2.48v-240a10.58,10.58,0,0,0-1.8-5.86l10.87-5.43A10.58,10.58,0,0,1,407.34,149Z" style="fill:#fff;opacity:0.2"></path><path d="M289.4,76.29a4.82,4.82,0,0,1,1.61.31l111,63.13a10.62,10.62,0,0,1,4.27,4.57l-10.87,5.43a10.46,10.46,0,0,0-3.57-3.36l-111-63.14a2.66,2.66,0,0,0-3.69,1.15h0C278,81.55,283.69,76.17,289.4,76.29Z" style="fill:#fff;opacity:0.4"></path><path d="M277.15,84.38h0c.81-2.83,6.55-8.21,12.26-8.09a4.82,4.82,0,0,1,1.61.31l111,63.13a10.75,10.75,0,0,1,5.37,9.23V389c0,6.12-7,11.95-13.67,9.15,0,0,0,0-.05,0a3.79,3.79,0,0,1-.42-.18l-111-63.23a10.63,10.63,0,0,1-5.36-9.22V85.54A2.61,2.61,0,0,1,277.15,84.38Z" style="fill:#fff;opacity:0.30000000000000004"></path><path d="M286.62,149h0a10.39,10.39,0,0,0-.64-3.56A10.39,10.39,0,0,1,286.62,149Z" style="fill:#fff;opacity:0.30000000000000004"></path><path d="M385.78,199.11,286.88,142c-.95-.55-1.72-.11-1.72,1L285,254.47a3.8,3.8,0,0,0,1.72,3l98.89,57.1c.95.54,1.72.11,1.73-1l.14-111.48A3.77,3.77,0,0,0,385.78,199.11Z" style="fill:#EB8D8D"></path><polygon points="291.41 104.96 292.59 105.64 292.6 100.59 291.43 99.91 291.41 104.96" style="fill:#fff"></polygon><polygon points="289.39 103.79 290.56 104.47 290.58 100.38 289.4 99.71 289.39 103.79" style="fill:#fff"></polygon><polygon points="287.37 102.62 288.54 103.3 288.55 100.27 287.38 99.59 287.37 102.62" style="fill:#fff"></polygon><polygon points="285.35 101.46 286.52 102.13 286.53 100.09 285.35 99.41 285.35 101.46" style="fill:#fff"></polygon><polygon points="295.79 107.48 302.98 111.64 302.99 107.4 295.8 103.24 295.79 107.48" style="fill:#fff"></polygon><polygon points="306.56 113.7 310.16 115.78 310.17 111.54 306.57 109.47 306.56 113.7" style="fill:#fff"></polygon><polygon points="380.82 156.05 380.83 152.63 384.69 154.86 380.83 152.63 380.82 156.05" style="fill:#fff"></polygon><polygon points="380.82 156.05 384.69 158.28 384.69 154.86 380.83 152.63 380.82 156.05" style="fill:#EB8D8D"></polygon><path d="M387.41,157v-1.34l-7.29-4.21v5l7.29,4.21v-1.33l.93.54v-2.38Zm-2.72,1.33-3.87-2.23v-3.42l3.87,2.23Z" style="fill:#fff"></path><polygon points="369.67 150.06 376.86 154.21 376.88 149.97 369.68 145.82 369.67 150.06" style="fill:#fff"></polygon><polygon points="335.33 129.98 342.52 134.14 342.54 129.9 335.34 125.74 335.33 129.98" style="fill:#fff"></polygon><polygon points="318.5 310.24 318.49 314.47 336.93 325.12 336.95 320.89 318.5 310.24" style="fill:#EB8D8D"></polygon><polygon points="345.4 311.95 326.42 300.98 326.4 305.21 345.39 316.17 345.4 311.95" style="fill:#EB8D8D"></polygon><polygon points="286.74 288.9 310.05 302.45 310.06 298.23 286.75 284.68 286.74 288.9" style="fill:#EB8D8D"></polygon><polygon points="321.31 298.04 286.77 278 286.76 282.22 321.3 302.26 321.31 298.04" style="fill:#EB8D8D"></polygon><polygon points="315.14 305.39 357.2 329.67 357.21 325.45 315.16 301.17 315.14 305.39" style="fill:#EB8D8D"></polygon><polygon points="314.02 307.66 286.77 291.93 286.76 296.15 314.01 311.88 314.02 307.66" style="fill:#EB8D8D"></polygon><polygon points="350.29 319 383.9 338.41 383.92 334.18 350.3 314.77 350.29 319" style="fill:#EB8D8D"></polygon><polygon points="362.1 332.5 383.89 345.08 383.9 340.86 362.12 328.28 362.1 332.5" style="fill:#EB8D8D"></polygon><polygon points="286.76 310.67 328.82 334.95 328.83 330.73 286.77 306.44 286.76 310.67" style="fill:#EB8D8D"></polygon><polygon points="286.77 316.42 286.76 320.65 314.02 336.38 314.02 332.15 286.77 316.42" style="fill:#EB8D8D"></polygon><polygon points="335.06 344.29 318.44 334.7 318.44 338.93 335.05 348.52 335.06 344.29" style="fill:#EB8D8D"></polygon><path d="M289.28,264.68a1.77,1.77,0,0,0-1.79-.18c-1,.56-1,2.39,0,4.09l.57,1,3.56,6.16,3.58-2,.58-.33c1-.56,1-2.4,0-4.1A5.23,5.23,0,0,0,294,267.4a1.82,1.82,0,0,0-1.79-.18l-.58.33-.57-1A5.11,5.11,0,0,0,289.28,264.68Z" style="fill:#fff"></path><path d="M304.12,273.45a9.68,9.68,0,0,1,4.39,7.6,3.76,3.76,0,0,1-.6,2.18l.58,2.87-2.2-1.94a3.89,3.89,0,0,1-2.2-.59,9.68,9.68,0,0,1-4.38-7.6C299.72,273.17,301.69,272.05,304.12,273.45Z" style="fill:#fff"></path><polygon points="341.79 183.75 346.9 193.09 354.33 195.68 357.47 205.4 364.98 210.76 365.85 219.9 372.71 227.51 371.2 235.18 376.74 244.28 373.02 249.73 376.7 259.45 371.13 262.14 372.58 271.52 365.7 271.19 364.79 279.31 357.27 275.99 354.09 282.06 346.67 276.07 341.52 279.5 334.93 271.44 328.32 271.88 323.2 262.53 315.78 259.95 312.64 250.22 305.13 244.87 304.27 235.72 297.41 228.12 298.91 220.44 293.37 211.34 297.09 205.89 293.41 196.17 298.99 193.48 297.53 184.1 304.41 184.44 305.32 176.32 312.84 179.63 316.03 173.56 323.44 179.55 328.59 176.13 335.18 184.19 341.79 183.75" style="fill:#EB8D8D"></polygon><g style="opacity:0.4"><polygon points="341.79 183.75 346.9 193.09 354.33 195.68 357.47 205.4 364.98 210.76 365.85 219.9 372.71 227.51 371.2 235.18 376.74 244.28 373.02 249.73 376.7 259.45 371.13 262.14 372.58 271.52 365.7 271.19 364.79 279.31 357.27 275.99 354.09 282.06 346.67 276.07 341.52 279.5 334.93 271.44 328.32 271.88 323.2 262.53 315.78 259.95 312.64 250.22 305.13 244.87 304.27 235.72 297.41 228.12 298.91 220.44 293.37 211.34 297.09 205.89 293.41 196.17 298.99 193.48 297.53 184.1 304.41 184.44 305.32 176.32 312.84 179.63 316.03 173.56 323.44 179.55 328.59 176.13 335.18 184.19 341.79 183.75" style="fill:#fff"></polygon></g><path d="M335.16,191.31c17.54,10.13,31.71,34.68,31.65,54.84S352.49,274.43,335,264.31s-31.71-34.68-31.66-54.84S317.61,181.19,335.16,191.31Z" style="fill:#EB8D8D"></path><g style="opacity:0.2"><path d="M335.16,191.31c17.54,10.13,31.71,34.68,31.65,54.84S352.49,274.43,335,264.31s-31.71-34.68-31.66-54.84S317.61,181.19,335.16,191.31Z" style="fill:#fff"></path></g><path d="M356.76,223c.77.44,1.23,1.89.54,2.14-6.31,2.3-19.68,7.81-27.84,15.73a1.64,1.64,0,0,1-2,0,5.21,5.21,0,0,1-2-2.22,209.89,209.89,0,0,0-12.57-21.89c-.84-1.28-.3-2.49.7-1.91a1.38,1.38,0,0,1,.23.16,69.61,69.61,0,0,1,13.11,14.65c12.36-7.94,23.58-7.73,29.5-6.78A1,1,0,0,1,356.76,223Z" style="fill:#fff"></path><path d="M293.46,126.18a14.08,14.08,0,0,1,6.38,11.06c0,4.06-2.89,5.7-6.42,3.66A14.08,14.08,0,0,1,287,129.84C287.05,125.78,289.92,124.14,293.46,126.18Z" style="fill:#fff"></path><polygon points="340.22 157.92 305.68 137.88 305.67 142.11 340.21 162.15 340.22 157.92" style="fill:#fff"></polygon></g><g id="freepik--speech-bubble--inject-68"><path d="M221.18,129.09l27.28-15.66c2.39-1.37,8,.49,8,4.33a1.78,1.78,0,0,0-2.66-1.54l-27.29,15.66a5.24,5.24,0,0,0-2.07,2.23l-5.3-3A5.26,5.26,0,0,1,221.18,129.09Z" style="fill:#EB8D8D"></path><path d="M224.49,134.11a5.29,5.29,0,0,0-.6,2.39v20.26a1.77,1.77,0,0,0,2.65,1.54,5.26,5.26,0,0,1-8-4.33V133.71a5.3,5.3,0,0,1,.69-2.61Z" style="fill:#EB8D8D"></path><path d="M221.18,129.09l27.28-15.66c2.39-1.37,8,.49,8,4.33a1.78,1.78,0,0,0-2.66-1.54l-27.29,15.66a5.24,5.24,0,0,0-2.07,2.23l-5.3-3A5.26,5.26,0,0,1,221.18,129.09Z" style="fill:#fff;opacity:0.4"></path><path d="M224.49,134.11a5.29,5.29,0,0,0-.6,2.39v20.26a1.77,1.77,0,0,0,2.65,1.54,5.26,5.26,0,0,1-8-4.33V133.71a5.3,5.3,0,0,1,.69-2.61Z" style="fill:#fff;opacity:0.2"></path><path d="M253.85,116.22l-27.29,15.66a5.33,5.33,0,0,0-2.67,4.62v20.26a1.77,1.77,0,0,0,2.65,1.54l27.29-15.59a5.34,5.34,0,0,0,2.68-4.62V117.76A1.78,1.78,0,0,0,253.85,116.22Z" style="fill:#EB8D8D"></path><path d="M217.32,146.83l6.56,1.23v-8.41l-6.79,6.41A.45.45,0,0,0,217.32,146.83Z" style="fill:#EB8D8D"></path><path d="M223.88,139.65l-5.38-3.08-6.78,6.48a.45.45,0,0,0,.09.72l5.36,3Z" style="fill:#EB8D8D"></path><path d="M223.88,139.65l-5.38-3.08-6.78,6.48a.45.45,0,0,0,.09.72l5.36,3Z" style="fill:#fff;opacity:0.2"></path><path d="M249.7,122.77c.67-.39,1.14.38.53,1.35a156.7,156.7,0,0,0-11.48,21.72,4.3,4.3,0,0,1-1.7,2.06,1.34,1.34,0,0,1-1.66,0,33.49,33.49,0,0,0-5.28-4.1c-.52-.33-.09-1.54.58-1.93a.82.82,0,0,1,.26-.1,18,18,0,0,1,6-.17,89.51,89.51,0,0,1,12.33-18.48A1.54,1.54,0,0,1,249.7,122.77Z" style="fill:#fff"></path></g></svg>